<svg id="Layer_2" data-name="Layer 2" xmlns="http://www.w3.org/2000/svg" viewBox="0 0 168.72 40.79">
  <defs>
    <style>
      .cls-1 {
        fill: #fff;
      }

      .cls-2 {
        fill: #da2304;
      }

      .cls-2, .cls-3 {
        fill-rule: evenodd;
      }

      .cls-3 {
        fill: #f26f1d;
      }
    </style>
  </defs>
  <title>brnrs.io1.white</title>
  <g>
    <path class="cls-1" d="M54.27,23.74v10a4.53,4.53,0,0,1-4.52,4.52H35V13h4.29v6.22H49.75A4.53,4.53,0,0,1,54.27,23.74Zm-4.29,0a0.22,0.22,0,0,0-.23-0.23H39.5a0.22,0.22,0,0,0-.23.23v10a0.22,0.22,0,0,0,.23.23H49.75A0.22,0.22,0,0,0,50,33.69v-10Z" transform="translate(-1)"/>
    <path class="cls-1" d="M71.82,19.22v4.29H61.27a0.22,0.22,0,0,0-.23.23V38.21H56.75V23.74a4.53,4.53,0,0,1,4.52-4.52H71.82Z" transform="translate(-1)"/>
    <path class="cls-1" d="M93.39,23.74V38.21H89.1V23.74a0.22,0.22,0,0,0-.23-0.23H78.63a0.22,0.22,0,0,0-.23.23V38.21H74.11v-19H88.88A4.53,4.53,0,0,1,93.39,23.74Z" transform="translate(-1)"/>
    <path class="cls-1" d="M111.89,19.22v4.29H101.35a0.22,0.22,0,0,0-.23.23V38.21H96.83V23.74a4.53,4.53,0,0,1,4.52-4.52h10.54Z" transform="translate(-1)"/>
    <path class="cls-1" d="M133.27,24.56H129V23.74a0.22,0.22,0,0,0-.23-0.23H118.51a0.22,0.22,0,0,0-.23.23v2.62a0.2,0.2,0,0,0,.23.2h10.25a4.51,4.51,0,0,1,4.52,4.52v2.62a4.51,4.51,0,0,1-4.52,4.52H118.51A4.53,4.53,0,0,1,114,33.69V32.87h4.29v0.82a0.22,0.22,0,0,0,.23.23h10.25a0.22,0.22,0,0,0,.23-0.23V31.07a0.2,0.2,0,0,0-.23-0.2H118.51A4.53,4.53,0,0,1,114,26.36V23.74a4.53,4.53,0,0,1,4.52-4.52h10.25a4.51,4.51,0,0,1,4.52,4.52v0.82Z" transform="translate(-1)"/>
    <path class="cls-1" d="M139.33,38.21h-2.68V35.53h2.68v2.69Z" transform="translate(-1)"/>
    <path class="cls-1" d="M146.27,13v2.69h-2.68V13h2.68Zm-2.68,6.22h2.68v19h-2.68v-19Z" transform="translate(-1)"/>
    <path class="cls-1" d="M165.72,19.22a4,4,0,0,1,4,4V34.25a4,4,0,0,1-4,4h-11.4a4,4,0,0,1-4-4V23.18a4,4,0,0,1,4-4h11.4Zm-11.4,2.68A1.3,1.3,0,0,0,153,23.18V34.25a1.3,1.3,0,0,0,1.28,1.28h11.4A1.28,1.28,0,0,0,167,34.25V23.18a1.28,1.28,0,0,0-1.28-1.28h-11.4Z" transform="translate(-1)"/>
  </g>
  <g>
    <path class="cls-2" d="M7.34,27.78a4.12,4.12,0,0,0,3.35.49s-8.62-1.93-3.14-10.8S18.11,6.83,14.88,1.83c0,0,7.33,2.5,3.87,9.27s-5,8.95-3.26,10.32,4.88-.52,2.74-4.23c0,0,5.64,2,2.5,9.51a10.08,10.08,0,0,0,2.22-9.91c-1.85-6,1.85-7.41,1.85-7.41S23,12.43,26,16.46c6,8.06,5.27,14.71,1.72,19-4.59,1.24-10-.05-14-2.26a21.38,21.38,0,0,1-6.41-5.44h0Zm16.33,11-0.95.06a22.58,22.58,0,0,1-11.79-3,23.37,23.37,0,0,1-7.38-6.41C4.86,41,16.14,43,23.68,38.79Z" transform="translate(-1)"/>
    <path class="cls-3" d="M10.86,9.69A11.53,11.53,0,0,0,2.37,15c-3.66,6.3.28,15.43,8.81,20.38,7.91,4.59,17,4,21.18-1.17-4.44,3.61-12.16,3.67-19-.29-8.21-4.77-12-13.56-8.49-19.64A10.48,10.48,0,0,1,10.86,9.69Z" transform="translate(-1)"/>
    <path class="cls-2" d="M20.48,15.08s-3.08-2.63,1.65-8.63S25.51,0,25.51,0C30.26,5.59,18.48,7.64,20.48,15.08Z" transform="translate(-1)"/>
  </g>
</svg>
